<svg xmlns="http://www.w3.org/2000/svg" viewBox="0 0 1336 216" width="1336" height="216" role="img" aria-label="MarketingClaw">
  <defs>
    <linearGradient id="tile" x1="0" y1="0" x2="1" y2="1">
      <stop offset="0" stop-color="#FF7A2F"/><stop offset=".5" stop-color="#FF2D68"/><stop offset="1" stop-color="#A93BF5"/>
    </linearGradient>
    <linearGradient id="claw" x1="0" y1="0" x2="1" y2="0">
      <stop offset="0" stop-color="#FF7A2F"/><stop offset=".55" stop-color="#FF2D68"/><stop offset="1" stop-color="#A93BF5"/>
    </linearGradient>
  </defs>
  <rect x="20" y="20" width="176" height="176" rx="42" fill="url(#tile)"/>
  <g transform="translate(20,20) scale(0.88)">
    <path d="M 52 150 L 128 74" fill="none" stroke="#ffffff" stroke-width="26" stroke-linecap="round"/>
    <path d="M 92 58 L 144 58 L 144 110" fill="none" stroke="#ffffff" stroke-width="26" stroke-linecap="round" stroke-linejoin="round"/>
  </g>
  <path d="M265.10 160.50L245.90 160.50L245.90 55.50L282.65 55.50L300.80 147L303.50 147L321.65 55.50L358.40 55.50L358.40 160.50L339.20 160.50L339.20 70.05L336.50 70.05L318.50 160.50L285.80 160.50L267.80 70.05L265.10 70.05L265.10 160.50ZM401.90 162.60L401.90 162.60Q393.95 162.60 387.65 159.82Q381.35 157.05 377.67 151.72Q374.00 146.40 374.00 138.75L374.00 138.75Q374.00 127.20 382.10 121.35Q390.20 115.50 402.80 115.50L402.80 115.50L423.20 115.50L423.20 111.30Q423.20 106.05 419.90 102.68Q416.60 99.30 409.40 99.30L409.40 99.30Q402.35 99.30 398.90 102.53Q395.45 105.75 394.40 110.85L394.40 110.85L377.00 105Q378.80 99.30 382.77 94.58Q386.75 89.85 393.42 86.92Q400.10 84 409.70 84L409.70 84Q424.40 84 432.95 91.35Q441.50 98.70 441.50 112.65L441.50 112.65L441.50 140.40Q441.50 144.90 445.70 144.90L445.70 144.90L451.70 144.90L451.70 160.50L439.10 160.50Q433.55 160.50 429.95 157.80Q426.35 155.10 426.35 150.60L426.35 150.60L426.35 150.45L423.50 150.45Q422.90 152.25 420.80 155.18Q418.70 158.10 414.20 160.35Q409.70 162.60 401.90 162.60ZM405.20 147.30L405.20 147.30Q413.15 147.30 418.17 142.88Q423.20 138.45 423.20 131.10L423.20 131.10L423.20 129.60L404.15 129.60Q398.90 129.60 395.90 131.85Q392.90 134.10 392.90 138.15L392.90 138.15Q392.90 142.20 396.05 144.75Q399.20 147.30 405.20 147.30ZM484.40 160.50L465.50 160.50L465.50 86.10L484.10 86.10L484.10 94.50L486.80 94.50Q488.45 90 492.27 87.90Q496.10 85.80 501.20 85.80L501.20 85.80L510.20 85.80L510.20 102.60L500.90 102.60Q493.70 102.60 489.05 106.43Q484.40 110.25 484.40 118.20L484.40 118.20L484.40 160.50ZM543.80 160.50L524.90 160.50L524.90 55.50L543.80 55.50L543.80 113.55L546.50 113.55L571.10 86.10L595.70 86.10L561.35 122.10L596.90 160.50L572.60 160.50L546.50 130.95L543.80 130.95L543.80 160.50ZM638.90 162.60L638.90 162.60Q627.80 162.60 619.33 157.88Q610.85 153.15 606.13 144.53Q601.40 135.90 601.40 124.20L601.40 124.20L601.40 122.40Q601.40 110.70 606.05 102.08Q610.70 93.45 619.10 88.73Q627.50 84 638.60 84L638.60 84Q649.55 84 657.65 88.88Q665.75 93.75 670.25 102.38Q674.75 111 674.75 122.40L674.75 122.40L674.75 128.85L620.60 128.85Q620.90 136.50 626.30 141.30Q631.70 146.10 639.50 146.10L639.50 146.10Q647.45 146.10 651.20 142.65Q654.95 139.20 656.90 135L656.90 135L672.35 143.10Q670.25 147 666.27 151.57Q662.30 156.15 655.70 159.38Q649.10 162.60 638.90 162.60ZM620.75 114.75L620.75 114.75L655.55 114.75Q654.95 108.30 650.38 104.40Q645.80 100.50 638.45 100.50L638.45 100.50Q630.80 100.50 626.30 104.40Q621.80 108.30 620.75 114.75ZM738.65 160.50L717.65 160.50Q710.30 160.50 705.73 155.93Q701.15 151.35 701.15 143.70L701.15 143.70L701.15 101.70L682.55 101.70L682.55 86.10L701.15 86.10L701.15 63L720.05 63L720.05 86.10L740.45 86.10L740.45 101.70L720.05 101.70L720.05 140.40Q720.05 144.90 724.25 144.90L724.25 144.90L738.65 144.90L738.65 160.50ZM776.45 160.50L757.55 160.50L757.55 86.10L776.45 86.10L776.45 160.50ZM767 77.40L767 77.40Q761.90 77.40 758.38 74.10Q754.85 70.80 754.85 65.40L754.85 65.40Q754.85 60 758.38 56.70Q761.90 53.40 767 53.40L767 53.40Q772.25 53.40 775.70 56.70Q779.15 60 779.15 65.40L779.15 65.40Q779.15 70.80 775.70 74.10Q772.25 77.40 767 77.40ZM816.35 160.50L797.45 160.50L797.45 86.10L816.05 86.10L816.05 95.85L818.75 95.85Q820.55 91.95 825.50 88.42Q830.45 84.90 840.50 84.90L840.50 84.90Q849.20 84.90 855.72 88.88Q862.25 92.85 865.85 99.83Q869.45 106.80 869.45 116.10L869.45 116.10L869.45 160.50L850.55 160.50L850.55 117.60Q850.55 109.20 846.42 105Q842.30 100.80 834.65 100.80L834.65 100.80Q825.95 100.80 821.15 106.58Q816.35 112.35 816.35 122.70L816.35 122.70L816.35 160.50ZM886.25 123.60L886.25 123.60L886.25 121.20Q886.25 109.50 890.90 101.18Q895.55 92.85 903.27 88.42Q911.00 84 920.15 84L920.15 84Q930.35 84 935.60 87.60Q940.85 91.20 943.25 95.10L943.25 95.10L945.95 95.10L945.95 86.10L964.55 86.10L964.55 173.70Q964.55 181.35 960.05 185.93Q955.55 190.50 948.05 190.50L948.05 190.50L898.25 190.50L898.25 174L941.45 174Q945.65 174 945.65 169.50L945.65 169.50L945.65 150.15L942.95 150.15Q940.70 153.90 935.52 157.35Q930.35 160.80 920.15 160.80L920.15 160.80Q911.00 160.80 903.27 156.38Q895.55 151.95 890.90 143.63Q886.25 135.30 886.25 123.60ZM925.55 144.30L925.55 144.30Q934.25 144.30 940.10 138.75Q945.95 133.20 945.95 123.15L945.95 123.15L945.95 121.65Q945.95 111.45 940.17 105.97Q934.40 100.50 925.55 100.50L925.55 100.50Q916.85 100.50 911.00 105.97Q905.15 111.45 905.15 121.65L905.15 121.65L905.15 123.15Q905.15 133.20 911.00 138.75Q916.85 144.30 925.55 144.30Z" fill="#141414"/>
  <path d="M1024.85 162.60L1024.85 162.60Q1005.35 162.60 993.95 151.72Q982.55 140.85 982.55 120.60L982.55 120.60L982.55 95.40Q982.55 75.15 993.95 64.28Q1005.35 53.40 1024.85 53.40L1024.85 53.40Q1044.20 53.40 1054.78 63.98Q1065.35 74.55 1065.35 93L1065.35 93L1065.35 93.90L1045.85 93.90L1045.85 92.40Q1045.85 83.10 1040.68 77.10Q1035.50 71.10 1024.85 71.10L1024.85 71.10Q1014.35 71.10 1008.35 77.55Q1002.35 84 1002.35 95.10L1002.35 95.10L1002.35 120.90Q1002.35 131.85 1008.35 138.38Q1014.35 144.90 1024.85 144.90L1024.85 144.90Q1035.50 144.90 1040.68 138.82Q1045.85 132.75 1045.85 123.60L1045.85 123.60L1045.85 120.90L1065.35 120.90L1065.35 123Q1065.35 141.45 1054.78 152.03Q1044.20 162.60 1024.85 162.60ZM1101.05 160.50L1082.15 160.50L1082.15 55.50L1101.05 55.50L1101.05 160.50ZM1145.15 162.60L1145.15 162.60Q1137.20 162.60 1130.90 159.82Q1124.60 157.05 1120.93 151.72Q1117.25 146.40 1117.25 138.75L1117.25 138.75Q1117.25 127.20 1125.35 121.35Q1133.45 115.50 1146.05 115.50L1146.05 115.50L1166.45 115.50L1166.45 111.30Q1166.45 106.05 1163.15 102.68Q1159.85 99.30 1152.65 99.30L1152.65 99.30Q1145.60 99.30 1142.15 102.53Q1138.70 105.75 1137.65 110.85L1137.65 110.85L1120.25 105Q1122.05 99.30 1126.03 94.58Q1130.00 89.85 1136.68 86.92Q1143.35 84 1152.95 84L1152.95 84Q1167.65 84 1176.20 91.35Q1184.75 98.70 1184.75 112.65L1184.75 112.65L1184.75 140.40Q1184.75 144.90 1188.95 144.90L1188.95 144.90L1194.95 144.90L1194.95 160.50L1182.35 160.50Q1176.80 160.50 1173.20 157.80Q1169.60 155.10 1169.60 150.60L1169.60 150.60L1169.60 150.45L1166.75 150.45Q1166.15 152.25 1164.05 155.18Q1161.95 158.10 1157.45 160.35Q1152.95 162.60 1145.15 162.60ZM1148.45 147.30L1148.45 147.30Q1156.40 147.30 1161.43 142.88Q1166.45 138.45 1166.45 131.10L1166.45 131.10L1166.45 129.60L1147.40 129.60Q1142.15 129.60 1139.15 131.85Q1136.15 134.10 1136.15 138.15L1136.15 138.15Q1136.15 142.20 1139.30 144.75Q1142.45 147.30 1148.45 147.30ZM1245.80 160.50L1214.45 160.50L1203.95 86.10L1222.70 86.10L1229.30 147.75L1232.00 147.75L1241.60 86.10L1271.90 86.10L1281.50 147.75L1284.20 147.75L1290.80 86.10L1309.55 86.10L1299.05 160.50L1267.70 160.50L1258.10 98.85L1255.40 98.85L1245.80 160.50Z" fill="url(#claw)"/>
</svg>
